<?xml version="1.0" encoding="UTF-8" standalone="no"?>
<!-- Created with Inkscape (http://www.inkscape.org/) -->

<svg
   version="1.1"
   id="svg2"
   xml:space="preserve"
   width="151.57867"
   height="137.14"
   viewBox="0 0 151.57867 137.14"
   xmlns="http://www.w3.org/2000/svg"
   xmlns:svg="http://www.w3.org/2000/svg"><defs
     id="defs6" /><g
     id="g8"
     transform="matrix(1.3333333,0,0,-1.3333333,0,137.14)"><g
       id="g10"
       transform="translate(56.842,53.558)"><g
         id="g12"><g
           id="g14"><g
             id="g16"><path
               d="m -31.1311,-44.15927 -25.51216,44.18844 28.29646,49.06907 56.64326,-0.02921 28.3468,-49.0982 v 0 l -28.29646,-49.06907 -5.66928,9.81951 22.53912,39.19874 v 0 l -22.67752,39.27871 -45.21664,0.08001 -22.53912,-39.19874 19.84288,-34.36896 -5.75734,-9.8703"
               style="fill:#006594;fill-opacity:1;fill-rule:nonzero;stroke:#000000;stroke-width:0.3985;stroke-linecap:butt;stroke-linejoin:miter;stroke-miterlimit:10;stroke-dasharray:none;stroke-opacity:1"
               id="path18" /></g><g
             id="g20"><g
               id="g22"><path
                 d="m -21.22844,-47.13776 c 2.24623,1.29686 3.01584,4.16906 1.71898,6.4153 -1.29688,2.24625 -4.16905,3.01584 -6.4153,1.71898 -2.24624,-1.29686 -3.01585,-4.16905 -1.71898,-6.4153 1.29686,-2.24624 4.16905,-3.01584 6.4153,-1.71898 z"
                 style="fill:#ff0000;fill-opacity:1;fill-rule:nonzero;stroke:none"
                 id="path24" /></g><g
               id="g26"
               transform="matrix(0.5,-0.86603,0.86603,0.5,-23.577,-43.07)"><g
                 id="g28" /><g
                 id="g30"
                 transform="translate(23.577,43.07)" /></g></g><g
             id="g32"><g
               id="g34"><path
                 d="m 21.77455,23.5147 c 2.24625,1.29687 3.01584,4.16905 1.71898,6.4153 -1.29687,2.24624 -4.16905,3.01585 -6.4153,1.71897 -2.24624,-1.29686 -3.01585,-4.16905 -1.71898,-6.4153 1.29686,-2.24623 4.16905,-3.01584 6.4153,-1.71897 z"
                 style="fill:#ff0000;fill-opacity:1;fill-rule:nonzero;stroke:none"
                 id="path36" /></g><g
               id="g38"
               transform="matrix(0.5,-0.86603,0.86603,0.5,19.426,27.581)"><g
                 id="g40" /><g
                 id="g42"
                 transform="translate(-19.426,-27.581)" /></g></g><g
             id="g44" /><g
             id="g46" /><g
             id="g48"><g
               id="g50"><path
                 d="m 22.90681,-52.26147 c 2.24625,1.29686 3.01586,4.16905 1.71899,6.41529 -1.29687,2.24625 -4.16906,3.01584 -6.41529,1.71898 -2.24625,-1.29687 -3.01585,-4.16905 -1.71898,-6.4153 1.29686,-2.24624 4.16904,-3.01583 6.41528,-1.71897 z"
                 style="fill:#ff0000;fill-opacity:1;fill-rule:nonzero;stroke:none"
                 id="path52" /></g><g
               id="g54"
               transform="matrix(0.5,-0.86603,0.86603,0.5,20.558,-48.194)"><g
                 id="g56" /><g
                 id="g58"
                 transform="translate(-20.558,48.194)" /></g></g><g
             id="g60"><path
               d="m -18.0481,-33.98734 15.973,26.24291"
               style="fill:none;stroke:#ff0000;stroke-width:1.19553;stroke-linecap:butt;stroke-linejoin:miter;stroke-miterlimit:10;stroke-dasharray:none;stroke-opacity:1"
               id="path62" /><g
               id="g64"
               transform="matrix(-0.51988,-0.85419,0.85419,-0.51988,-18.04808,-33.98734)"><g
                 id="g66"><path
                   d="M 5.73854,0 C 4.0382,0.31879 1.27522,1.27522 -0.6376,2.39105 v -4.7821 C 1.27522,-1.27522 4.0382,-0.31879 5.73854,0"
                   style="fill:#ff0000;fill-opacity:1;fill-rule:nonzero;stroke:none"
                   id="path68" /></g></g></g><g
             id="g70"><path
               d="M 13.89786,18.49849 -2.0751,-7.74443"
               style="fill:none;stroke:#ff0000;stroke-width:1.19553;stroke-linecap:butt;stroke-linejoin:miter;stroke-miterlimit:10;stroke-dasharray:none;stroke-opacity:1"
               id="path72" /><g
               id="g74"
               transform="matrix(0.51988,0.85419,-0.85419,0.51988,13.89784,18.49849)"><g
                 id="g76"><path
                   d="M 5.73854,0 C 4.0382,0.31879 1.27522,1.27522 -0.6376,2.39105 v -4.7821 C 1.27522,-1.27522 4.0382,-0.31879 5.73854,0"
                   style="fill:#ff0000;fill-opacity:1;fill-rule:nonzero;stroke:none"
                   id="path78" /></g></g></g><g
             id="g80"><path
               d="M -2.0751,-7.74443 15.36621,-38.91484"
               style="fill:none;stroke:#ff0000;stroke-width:1.19553;stroke-linecap:butt;stroke-linejoin:miter;stroke-miterlimit:10;stroke-dasharray:none;stroke-opacity:1"
               id="path82" /><g
               id="g84"
               transform="matrix(0.4883,-0.87262,0.87262,0.4883,15.3662,-38.91484)"><g
                 id="g86"><path
                   d="M 5.73854,0 C 4.0382,0.31879 1.27522,1.27522 -0.6376,2.39105 v -4.7821 C 1.27522,-1.27522 4.0382,-0.31879 5.73854,0"
                   style="fill:#ff0000;fill-opacity:1;fill-rule:nonzero;stroke:none"
                   id="path88" /></g></g></g><g
             id="g90"><g
               id="g92"><path
                 d="m 0.27304,-11.81157 c 2.24623,1.29687 3.01584,4.16905 1.71898,6.4153 -1.29688,2.24625 -4.16904,3.01584 -6.41528,1.71898 -2.24625,-1.29686 -3.01586,-4.16905 -1.71898,-6.4153 1.29686,-2.24625 4.16905,-3.01584 6.41528,-1.71898 z"
                 style="fill:#ffffff;fill-opacity:1;fill-rule:nonzero;stroke:#ff0000;stroke-width:0.3985;stroke-linecap:butt;stroke-linejoin:miter;stroke-miterlimit:10;stroke-dasharray:none;stroke-opacity:1"
                 id="path94" /></g><g
               id="g96"
               transform="matrix(0.5,-0.86603,0.86603,0.5,-2.075,-7.745)"><g
                 id="g98" /><g
                 id="g100"
                 transform="translate(2.075,7.745)" /></g></g></g></g></g></g></svg>
