<?xml version="1.0" encoding="UTF-8" standalone="no"?>
<svg
   id="Layer_1"
   data-name="Layer 1"
   viewBox="0 0 935.90997 973.01001"
   version="1.1"
   sodipodi:docname="lassi.svg"
   width="935.90997"
   height="973.01001"
   xmlns:inkscape="http://www.inkscape.org/namespaces/inkscape"
   xmlns:sodipodi="http://sodipodi.sourceforge.net/DTD/sodipodi-0.dtd"
   xmlns="http://www.w3.org/2000/svg"
   xmlns:svg="http://www.w3.org/2000/svg">
  <sodipodi:namedview
     id="namedview59"
     pagecolor="#ffffff"
     bordercolor="#666666"
     borderopacity="1.0"
     inkscape:showpageshadow="2"
     inkscape:pageopacity="0.0"
     inkscape:pagecheckerboard="0"
     inkscape:deskcolor="#d1d1d1" />
  <defs
     id="defs4">
    <style
       id="style2">
      .cls-1 {
        fill: #201e5a;
      }

      .cls-1, .cls-2, .cls-3, .cls-4, .cls-5 {
        stroke-width: 0px;
      }

      .cls-6 {
        stroke-miterlimit: 10;
      }

      .cls-6, .cls-7 {
        fill: none;
        stroke: #0077b6;
        stroke-width: 32.76px;
      }

      .cls-2 {
        fill: #02b4d7;
      }

      .cls-3 {
        fill: #dadada;
      }

      .cls-4 {
        fill: #ccebf3;
      }

      .cls-7 {
        stroke-linecap: round;
        stroke-linejoin: round;
      }

      .cls-5 {
        fill: #97d8e8;
      }
    </style>
  </defs>
  <g
     id="g54"
     transform="translate(-32.050001,-13.500001)">
    <g
       id="g32">
      <path
         class="cls-4"
         d="m 951.57,494.18 v 280.04 c 0,108.19 -145.65,195.91 -325.29,195.91 -44.78,0 -87.44,-5.45 -126.28,-15.3 116.92,-29.69 199.02,-99.39 199.02,-180.6 V 685.16 C 843.64,665.27 951.57,587.31 951.57,494.19 Z"
         id="path6" />
      <path
         class="cls-4"
         d="m 951.57,225.76 v 268.41 c 0,93.12 -107.93,171.08 -252.55,190.97 V 416.75 C 843.64,396.84 951.57,318.88 951.57,225.76 Z"
         id="path8" />
      <path
         class="cls-4"
         d="m 626.28,29.88 c 179.64,0 325.29,87.69 325.29,195.88 0,93.12 -107.93,171.08 -252.55,190.99 V 225.76 c 0,-81.21 -82.1,-150.89 -199.02,-180.58 38.84,-9.85 81.49,-15.3 126.28,-15.3 z"
         id="path10" />
      <path
         class="cls-2"
         d="m 699.02,685.15 v 89.07 c 0,81.21 -82.1,150.91 -199.02,180.6 C 383.08,925.13 300.98,855.43 300.98,774.22 v -89.07 c 23.37,3.21 47.73,4.91 72.74,4.91 44.78,0 87.44,-5.45 126.28,-15.3 38.84,9.85 81.49,15.3 126.28,15.3 25.01,0 49.34,-1.71 72.74,-4.91 z"
         id="path12" />
      <path
         class="cls-5"
         d="m 699.02,494.18 v 190.97 c -23.4,3.21 -47.73,4.91 -72.74,4.91 -44.78,0 -87.44,-5.45 -126.28,-15.3 116.92,-29.69 199.02,-99.37 199.02,-180.58 z"
         id="path14" />
      <path
         class="cls-2"
         d="m 699.02,416.76 v 77.42 c 0,81.21 -82.1,150.89 -199.02,180.58 C 383.08,645.07 300.98,575.39 300.98,494.18 v -77.42 c 23.37,3.21 47.73,4.91 72.74,4.91 44.78,0 87.44,-5.45 126.28,-15.3 38.84,9.85 81.49,15.3 126.28,15.3 25.01,0 49.34,-1.71 72.74,-4.91 z"
         id="path16" />
      <path
         class="cls-5"
         d="m 699.02,225.76 v 190.99 c -23.4,3.21 -47.73,4.91 -72.74,4.91 -44.78,0 -87.44,-5.45 -126.28,-15.3 116.92,-29.69 199.02,-99.39 199.02,-180.6 z"
         id="path18" />
      <path
         class="cls-1"
         d="m 500,45.18 c 116.92,29.69 199.02,99.37 199.02,180.58 0,81.21 -82.1,150.91 -199.02,180.6 C 383.08,376.67 300.98,306.97 300.98,225.76 300.98,144.55 383.08,74.87 500,45.18 Z"
         id="path20" />
      <path
         class="cls-4"
         d="M 500,45.18 C 383.08,74.87 300.98,144.55 300.98,225.76 V 416.75 C 156.34,396.84 48.43,318.88 48.43,225.76 48.43,117.57 194.05,29.88 373.72,29.88 c 44.78,0 87.44,5.45 126.28,15.3 z"
         id="path22" />
      <path
         class="cls-5"
         d="m 300.99,225.76 c 0,81.21 82.1,150.91 199.02,180.6 -38.84,9.85 -81.49,15.3 -126.28,15.3 -25.01,0 -49.37,-1.71 -72.74,-4.91 z"
         id="path24" />
      <path
         class="cls-5"
         d="m 300.99,494.18 c 0,81.21 82.1,150.89 199.02,180.58 -38.84,9.85 -81.49,15.3 -126.28,15.3 -25.01,0 -49.37,-1.71 -72.74,-4.91 z"
         id="path26" />
      <path
         class="cls-4"
         d="m 300.99,774.22 c 0,81.21 82.1,150.91 199.02,180.6 -38.84,9.85 -81.49,15.3 -126.28,15.3 C 194.06,970.12 48.44,882.4 48.44,774.21 V 494.17 c 0,93.12 107.91,171.08 252.55,190.97 v 89.07 z"
         id="path28" />
      <path
         class="cls-4"
         d="M 300.99,494.18 V 685.15 C 156.35,665.26 48.44,587.3 48.44,494.18 V 225.76 c 0,93.12 107.91,171.08 252.55,190.99 v 77.42 z"
         id="path30" />
    </g>
    <g
       id="g52">
      <path
         class="cls-6"
         d="m 699.02,225.76 c 0,81.21 -82.1,150.91 -199.02,180.6 -38.84,9.85 -81.49,15.3 -126.28,15.3 -25.01,0 -49.37,-1.71 -72.74,-4.91 C 156.34,396.84 48.43,318.88 48.43,225.76 48.43,117.57 194.05,29.88 373.72,29.88 c 44.78,0 87.44,5.45 126.28,15.3 116.92,29.69 199.02,99.37 199.02,180.58 z"
         id="path34" />
      <path
         class="cls-6"
         d="m 699.02,494.18 c 0,81.21 -82.1,150.89 -199.02,180.58 -38.84,9.85 -81.49,15.3 -126.28,15.3 -25.01,0 -49.37,-1.71 -72.74,-4.91 C 156.34,665.26 48.43,587.3 48.43,494.18 v 280.04 c 0,108.19 145.62,195.91 325.29,195.91 44.78,0 87.44,-5.45 126.28,-15.3 116.92,-29.69 199.02,-99.39 199.02,-180.6 V 494.19 Z"
         id="path36" />
      <line
         class="cls-6"
         x1="48.439999"
         y1="225.75999"
         x2="48.439999"
         y2="494.17999"
         id="line38" />
      <polyline
         class="cls-6"
         points="699.02 225.76 699.02 416.76 699.02 494.18"
         id="polyline40" />
      <path
         class="cls-6"
         d="m 300.99,225.76 c 0,81.21 82.1,150.91 199.02,180.6 38.84,9.85 81.49,15.3 126.28,15.3 25.01,0 49.34,-1.71 72.74,-4.91 144.62,-19.91 252.55,-97.87 252.55,-190.99 0,-108.19 -145.65,-195.88 -325.29,-195.88 -44.78,0 -87.44,5.45 -126.28,15.3"
         id="path42" />
      <path
         class="cls-7"
         d="M 500,45.18 C 383.08,74.87 300.98,144.55 300.98,225.76"
         id="path44" />
      <path
         class="cls-6"
         d="m 699.02,685.15 c -23.4,3.21 -47.73,4.91 -72.74,4.91 -44.78,0 -87.44,-5.45 -126.28,-15.3 C 383.08,645.07 300.98,575.39 300.98,494.18 v 280.04 c 0,81.21 82.1,150.91 199.02,180.6 38.84,9.85 81.49,15.3 126.28,15.3 179.64,0 325.29,-87.72 325.29,-195.91 V 494.17 c 0,93.12 -107.93,171.08 -252.55,190.97 z"
         id="path46" />
      <line
         class="cls-6"
         x1="951.57001"
         y1="225.75999"
         x2="951.57001"
         y2="494.17999"
         id="line48" />
      <polyline
         class="cls-7"
         points="300.99 494.18 300.99 416.76 300.99 225.76"
         id="polyline50" />
    </g>
  </g>
  <path
     class="cls-3"
     d="m 425.59,114.36 c 17.09,0 30.84,2.09 41.26,6.27 10.42,4.18 18.43,11.8 24.04,22.85 l 51.68,100.81 c 3.61,7.1 8.18,12.04 13.72,14.84 5.54,2.8 12.38,4.2 20.53,4.2 3.61,0 7.75,-0.3 12.42,-0.9 l 4.81,20.83 c -6.81,0.9 -13.89,1.34 -21.23,1.34 -17.36,0 -31.38,-2.18 -42.07,-6.55 -10.68,-4.37 -18.96,-12.3 -24.84,-23.8 l -34.24,-66.75 -7.22,1.23 c 2.14,4.93 3.1,9.67 2.91,14.23 -0.19,4.56 -1.77,8.96 -4.71,13.22 l -44.86,66.2 h -45.48 l 87.47,-118.06 -4.94,-9.63 c -3.61,-7.1 -8.11,-12.04 -13.52,-14.84 -5.41,-2.8 -11.99,-4.2 -19.74,-4.2 -3.6,0 -7.74,0.3 -12.41,0.9 l -4.82,-20.84 c 6.81,-0.9 13.89,-1.34 21.24,-1.34 z"
     id="path56" />
</svg>
