<?xml version="1.0" encoding="UTF-8"?>
<svg id="Layer_1" data-name="Layer 1" xmlns="http://www.w3.org/2000/svg" viewBox="0 0 1000 1000">
  <defs>
    <style>
      .cls-1 {
        fill: #201e5a;
      }

      .cls-1, .cls-2, .cls-3, .cls-4, .cls-5 {
        stroke-width: 0px;
      }

      .cls-6 {
        stroke-miterlimit: 10;
      }

      .cls-6, .cls-7 {
        fill: none;
        stroke: #0077b6;
        stroke-width: 32.76px;
      }

      .cls-2 {
        fill: #02b4d7;
      }

      .cls-3 {
        fill: #dadada;
      }

      .cls-4 {
        fill: #ccebf3;
      }

      .cls-7 {
        stroke-linecap: round;
        stroke-linejoin: round;
      }

      .cls-5 {
        fill: #97d8e8;
      }
    </style>
  </defs>
  <g>
    <g>
      <path class="cls-4" d="m951.57,494.18v280.04c0,108.19-145.65,195.91-325.29,195.91-44.78,0-87.44-5.45-126.28-15.3,116.92-29.69,199.02-99.39,199.02-180.6v-89.07c144.62-19.89,252.55-97.85,252.55-190.97Z"/>
      <path class="cls-4" d="m951.57,225.76v268.41c0,93.12-107.93,171.08-252.55,190.97v-268.39c144.62-19.91,252.55-97.87,252.55-190.99Z"/>
      <path class="cls-4" d="m626.28,29.88c179.64,0,325.29,87.69,325.29,195.88,0,93.12-107.93,171.08-252.55,190.99v-190.99c0-81.21-82.1-150.89-199.02-180.58,38.84-9.85,81.49-15.3,126.28-15.3Z"/>
      <path class="cls-2" d="m699.02,685.15v89.07c0,81.21-82.1,150.91-199.02,180.6-116.92-29.69-199.02-99.39-199.02-180.6v-89.07c23.37,3.21,47.73,4.91,72.74,4.91,44.78,0,87.44-5.45,126.28-15.3,38.84,9.85,81.49,15.3,126.28,15.3,25.01,0,49.34-1.71,72.74-4.91Z"/>
      <path class="cls-5" d="m699.02,494.18v190.97c-23.4,3.21-47.73,4.91-72.74,4.91-44.78,0-87.44-5.45-126.28-15.3,116.92-29.69,199.02-99.37,199.02-180.58Z"/>
      <path class="cls-2" d="m699.02,416.76v77.42c0,81.21-82.1,150.89-199.02,180.58-116.92-29.69-199.02-99.37-199.02-180.58v-77.42c23.37,3.21,47.73,4.91,72.74,4.91,44.78,0,87.44-5.45,126.28-15.3,38.84,9.85,81.49,15.3,126.28,15.3,25.01,0,49.34-1.71,72.74-4.91Z"/>
      <path class="cls-5" d="m699.02,225.76v190.99c-23.4,3.21-47.73,4.91-72.74,4.91-44.78,0-87.44-5.45-126.28-15.3,116.92-29.69,199.02-99.39,199.02-180.6Z"/>
      <path class="cls-1" d="m500,45.18c116.92,29.69,199.02,99.37,199.02,180.58s-82.1,150.91-199.02,180.6c-116.92-29.69-199.02-99.39-199.02-180.6s82.1-150.89,199.02-180.58Z"/>
      <path class="cls-4" d="m500,45.18c-116.92,29.69-199.02,99.37-199.02,180.58v190.99c-144.64-19.91-252.55-97.87-252.55-190.99,0-108.19,145.62-195.88,325.29-195.88,44.78,0,87.44,5.45,126.28,15.3Z"/>
      <path class="cls-5" d="m300.99,225.76c0,81.21,82.1,150.91,199.02,180.6-38.84,9.85-81.49,15.3-126.28,15.3-25.01,0-49.37-1.71-72.74-4.91v-190.99Z"/>
      <path class="cls-5" d="m300.99,494.18c0,81.21,82.1,150.89,199.02,180.58-38.84,9.85-81.49,15.3-126.28,15.3-25.01,0-49.37-1.71-72.74-4.91v-190.97Z"/>
      <path class="cls-4" d="m300.99,774.22c0,81.21,82.1,150.91,199.02,180.6-38.84,9.85-81.49,15.3-126.28,15.3-179.67,0-325.29-87.72-325.29-195.91v-280.04c0,93.12,107.91,171.08,252.55,190.97v89.07Z"/>
      <path class="cls-4" d="m300.99,494.18v190.97c-144.64-19.89-252.55-97.85-252.55-190.97V225.76c0,93.12,107.91,171.08,252.55,190.99v77.42Z"/>
    </g>
    <g>
      <path class="cls-6" d="m699.02,225.76c0,81.21-82.1,150.91-199.02,180.6-38.84,9.85-81.49,15.3-126.28,15.3-25.01,0-49.37-1.71-72.74-4.91-144.64-19.91-252.55-97.87-252.55-190.99,0-108.19,145.62-195.88,325.29-195.88,44.78,0,87.44,5.45,126.28,15.3,116.92,29.69,199.02,99.37,199.02,180.58Z"/>
      <path class="cls-6" d="m699.02,494.18c0,81.21-82.1,150.89-199.02,180.58-38.84,9.85-81.49,15.3-126.28,15.3-25.01,0-49.37-1.71-72.74-4.91-144.64-19.89-252.55-97.85-252.55-190.97v280.04c0,108.19,145.62,195.91,325.29,195.91,44.78,0,87.44-5.45,126.28-15.3,116.92-29.69,199.02-99.39,199.02-180.6v-280.04Z"/>
      <line class="cls-6" x1="48.44" y1="225.76" x2="48.44" y2="494.18"/>
      <polyline class="cls-6" points="699.02 225.76 699.02 416.76 699.02 494.18"/>
      <path class="cls-6" d="m300.99,225.76c0,81.21,82.1,150.91,199.02,180.6,38.84,9.85,81.49,15.3,126.28,15.3,25.01,0,49.34-1.71,72.74-4.91,144.62-19.91,252.55-97.87,252.55-190.99,0-108.19-145.65-195.88-325.29-195.88-44.78,0-87.44,5.45-126.28,15.3"/>
      <path class="cls-7" d="m500,45.18c-116.92,29.69-199.02,99.37-199.02,180.58"/>
      <path class="cls-6" d="m699.02,685.15c-23.4,3.21-47.73,4.91-72.74,4.91-44.78,0-87.44-5.45-126.28-15.3-116.92-29.69-199.02-99.37-199.02-180.58v280.04c0,81.21,82.1,150.91,199.02,180.6,38.84,9.85,81.49,15.3,126.28,15.3,179.64,0,325.29-87.72,325.29-195.91v-280.04c0,93.12-107.93,171.08-252.55,190.97Z"/>
      <line class="cls-6" x1="951.57" y1="225.76" x2="951.57" y2="494.18"/>
      <polyline class="cls-7" points="300.99 494.18 300.99 416.76 300.99 225.76"/>
    </g>
  </g>
  <path class="cls-3" d="m457.64,127.86c17.09,0,30.84,2.09,41.26,6.27,10.42,4.18,18.43,11.8,24.04,22.85l51.68,100.81c3.61,7.1,8.18,12.04,13.72,14.84,5.54,2.8,12.38,4.2,20.53,4.2,3.61,0,7.75-.3,12.42-.9l4.81,20.83c-6.81.9-13.89,1.34-21.23,1.34-17.36,0-31.38-2.18-42.07-6.55-10.68-4.37-18.96-12.3-24.84-23.8l-34.24-66.75-7.22,1.23c2.14,4.93,3.1,9.67,2.91,14.23s-1.77,8.96-4.71,13.22l-44.86,66.2h-45.48l87.47-118.06-4.94-9.63c-3.61-7.1-8.11-12.04-13.52-14.84-5.41-2.8-11.99-4.2-19.74-4.2-3.6,0-7.74.3-12.41.9l-4.82-20.84c6.81-.9,13.89-1.34,21.24-1.34Z"/>
</svg>
